<svg xmlns="http://www.w3.org/2000/svg" viewBox="0 0 187.30 35.25" width="187.30" height="35.25" role="img" aria-label="Nezam AI">
<title>Nezam AI</title>
<g transform="translate(-4.106,-3.869) scale(0.041980)"><path fill="#BA903B" fill-rule="evenodd" d="M 544.26,930.76 L 530.88,931.55 517.42,931.84 503.93,931.64 490.39,930.94 476.84,929.75 463.31,928.09 449.79,925.95 436.30,923.37 422.87,920.32 409.50,916.84 396.24,912.92 383.07,908.58 370.02,903.82 357.13,898.65 344.37,893.08 331.80,887.11 319.42,880.77 307.25,874.05 295.30,866.96 283.59,859.51 272.15,851.71 260.98,843.56 250.10,835.08 239.54,826.27 229.30,817.16 219.41,807.73 209.87,798.00 200.72,787.97 191.96,777.67 183.58,767.10 175.60,756.25 168.00,745.15 160.80,733.83 153.98,722.28 147.55,710.50 141.51,698.52 135.86,686.34 130.60,674.00 125.73,661.45 121.26,648.77 117.17,635.92 113.48,622.94 110.17,609.83 107.25,596.60 104.73,583.26 102.60,569.83 100.86,556.31 99.50,542.73 98.55,529.08 97.99,515.37 97.81,501.62 98.02,487.86 98.63,474.06 99.64,460.27 101.03,446.47 102.81,432.68 105.01,418.95 107.62,405.32 110.72,391.91 114.30,378.75 118.41,365.96 123.09,353.62 128.39,341.78 134.31,330.58 140.91,320.17 148.29,310.83 156.43,302.77 165.47,296.23 175.40,291.42 186.30,288.61 198.20,287.91 210.93,289.10 224.28,291.82 238.06,295.72 252.07,300.45 266.09,305.67 279.93,311.03 293.39,316.19 306.42,321.02 319.09,325.65 331.43,330.13 343.56,334.59 355.51,339.11 367.37,343.78 379.19,348.69 391.01,353.89 402.80,359.37 414.58,365.11 426.32,371.14 438.04,377.41 449.71,383.94 461.32,390.72 472.89,397.75 484.40,405.00 495.82,412.49 507.18,420.21 518.45,428.15 529.64,436.30 540.72,444.64 551.69,453.20 562.57,461.95 573.31,470.89 583.93,480.02 594.43,489.31 604.78,498.79 614.99,508.41 625.04,518.20 634.93,528.14 644.67,538.23 654.22,548.47 663.59,558.85 672.81,569.42 681.86,580.23 690.77,591.27 699.54,602.63 708.18,614.32 716.69,625.76 725.04,635.25 733.20,640.90 741.11,641.46 748.56,637.65 755.32,630.48 761.18,620.89 766.17,609.48 770.36,596.60 773.86,582.67 776.77,568.05 779.17,553.17 781.15,538.38 782.81,524.10 784.10,510.38 784.86,497.14 784.97,484.20 784.26,471.47 782.60,458.82 779.84,446.11 775.84,433.21 770.58,420.06 764.58,406.81 758.54,393.74 753.15,381.06 749.07,368.99 747.03,357.82 747.66,347.73 751.46,338.83 758.15,330.58 767.36,322.35 778.63,313.64 791.24,304.57 804.31,295.60 817.04,287.16 828.81,280.33 839.12,276.47 847.55,276.88 854.29,281.53 860.09,289.24 865.73,298.78 871.64,309.31 877.73,320.64 883.88,332.65 889.92,345.20 895.75,358.17 901.21,371.41 906.17,384.80 910.58,398.25 914.41,411.79 917.69,425.36 920.43,438.95 922.61,452.58 924.29,466.22 925.43,479.86 926.06,493.51 926.19,507.13 925.84,520.73 925.00,534.28 923.68,547.78 921.89,561.23 919.66,574.60 916.96,587.89 913.83,601.10 910.28,614.19 906.30,627.18 901.92,640.04 897.11,652.77 891.92,665.34 886.35,677.77 880.40,690.03 874.07,702.11 867.40,714.01 860.36,725.70 852.99,737.19 845.29,748.45 837.26,759.50 828.91,770.29 820.28,780.83 811.32,791.12 802.09,801.13 792.58,810.85 782.80,820.28 772.76,829.40 762.47,838.22 751.93,846.71 741.15,854.85 730.17,862.65 718.95,870.10 707.54,877.16 695.91,883.86 684.11,890.17 672.12,896.07 659.96,901.56 647.64,906.65 635.16,911.29 622.54,915.48 609.78,919.22 596.89,922.50 583.89,925.31 570.78,927.61 557.57,929.44 544.26,930.76 Z M 529.95,786.46 L 522.15,786.83 514.41,787.01 506.75,787.01 499.15,786.84 491.60,786.48 484.12,785.93 476.72,785.18 469.35,784.23 462.06,783.10 454.82,781.76 447.63,780.20 440.51,778.45 433.44,776.47 426.42,774.27 419.47,771.86 412.55,769.22 405.69,766.36 398.88,763.27 392.10,759.92 385.39,756.35 378.72,752.54 372.10,748.49 365.55,744.22 359.07,739.74 352.66,735.05 346.36,730.17 340.16,725.12 334.07,719.90 328.12,714.53 322.29,709.02 316.63,703.37 311.11,697.60 305.77,691.74 300.59,685.78 295.62,679.73 290.84,673.62 286.28,667.45 281.93,661.22 277.81,654.97 273.90,648.65 270.23,642.29 266.75,635.86 263.48,629.38 260.41,622.80 257.54,616.16 254.86,609.43 252.36,602.60 250.04,595.67 247.90,588.65 245.92,581.51 244.10,574.24 242.45,566.86 240.94,559.34 239.58,551.68 238.38,543.88 237.29,535.93 236.35,527.81 235.54,519.57 234.93,511.28 234.56,503.12 234.52,495.17 234.85,487.60 235.63,480.52 236.91,474.06 238.78,468.36 241.26,463.57 244.45,459.77 248.39,457.13 253.06,455.62 258.37,455.10 264.23,455.49 270.56,456.64 277.26,458.45 284.25,460.80 291.44,463.57 298.75,466.63 306.07,469.87 313.33,473.19 320.54,476.55 327.65,479.95 334.71,483.42 341.69,486.93 348.60,490.47 355.45,494.09 362.24,497.73 368.97,501.44 375.64,505.21 382.25,509.02 388.81,512.90 395.31,516.82 401.76,520.82 408.17,524.86 414.54,528.97 420.84,533.15 427.13,537.38 433.35,541.68 439.56,546.03 445.71,550.47 451.85,554.96 457.95,559.52 464.01,564.16 470.05,568.86 476.08,573.63 482.08,578.47 488.04,583.40 494.01,588.39 499.94,593.46 505.87,598.60 511.79,603.83 517.68,609.13 523.58,614.51 529.47,619.98 535.35,625.53 541.24,631.16 547.08,636.85 552.90,642.64 558.66,648.47 564.36,654.37 569.97,660.32 575.48,666.32 580.88,672.36 586.15,678.45 591.27,684.56 596.23,690.71 601.03,696.87 605.62,703.05 610.03,709.23 614.19,715.43 618.15,721.62 621.82,727.82 625.15,733.97 627.74,739.96 629.24,745.70 629.22,751.06 627.38,755.93 623.79,760.29 618.80,764.20 612.79,767.69 606.14,770.82 599.16,773.60 591.95,776.07 584.54,778.25 576.98,780.14 569.27,781.76 561.47,783.15 553.60,784.29 545.71,785.21 537.80,785.93 529.95,786.46 Z M 438.65,163.12 C 438.65,123.93 470.42,92.16 509.60,92.16 C 548.79,92.16 580.56,123.93 580.56,163.12 C 580.56,202.30 548.79,234.08 509.60,234.08 C 470.42,234.08 438.65,202.30 438.65,163.12 Z"/></g>
<g transform="translate(59.402,27.921)"><path fill="#F8F5F1" d="M7.962179782390594 -0.5002868753671645Q7.962179782390594 -0.27581767313182354 7.7895821236073965 -0.14057739542797207Q7.616984464824199 -0.0053371177241206165 7.263782656341791 0.0H2.0775040820986033Q1.7243022736161946 -0.0053371177241206165 1.5490360559709369 -0.14057739542797207Q1.3737698383256793 -0.27581767313182354 1.3737698383256793 -0.5002868753671645Q1.3737698383256793 -0.8708447442948818 1.907366239093244 -1.0579391694813967L2.8218239499628543 -1.301204452626407Q3.495260726697743 -1.519576237052679 3.7378779573552308 -1.7958834004215896Q3.980495188012719 -2.0721905637905 3.980495188012719 -2.6918606592714784V-16.795260606184602Q3.980495188012719 -17.215057871751487 3.868438812084496 -17.50067188605666Q3.7563824361562728 -17.786285900361836 3.3182144070044157 -18.306465648896992L1.9955826782807706 -19.949476399607956Q1.808821404799819 -20.197582380361855 1.7381378618068992 -20.33046278323978Q1.6674543188139797 -20.463343186117708 1.6674543188139797 -20.592410775125025Q1.6674543188139797 -20.79319691363722 1.8143718943186105 -20.89659845681861Q1.9612894698232413 -21.0 2.2057493137568236 -21.0H4.870746030472219Q5.223582950234413 -21.0 5.4627015035972 -20.86997181946412Q5.701820056959987 -20.739943638928235 5.967243441715836 -20.38317574929446L18.505079025328158 -3.912311538979411L17.925472495257853 -2.6936703636869788V-18.30813934072852Q17.925472495257853 -18.918129972293972 17.695037525855003 -19.199268576800822Q17.464602556452153 -19.480407181307672 16.762822171077133 -19.698795547373592L15.77809894144535 -19.942060830518603Q15.244502540677786 -20.145166608877478 15.244502540677786 -20.499713124632834Q15.244502540677786 -20.73851907838136 15.419768758323043 -20.86925953919068Q15.5950349759683 -21.0 15.94289966672659 -21.0H21.129178240969775Q21.482380049452185 -21.0 21.65764626709744 -20.86925953919068Q21.8329124847427 -20.73851907838136 21.8329124847427 -20.499713124632834Q21.8329124847427 -20.13449237342924 21.299316083975135 -19.942060830518603L20.384858373105526 -19.698795547373592Q19.71241636790335 -19.496418534480036 19.469301751479506 -19.215279929973185Q19.22618713505566 -18.934141325466335 19.22618713505566 -18.30813934072852V-3.6120122503861785Q19.22618713505566 -3.2038506261259316 19.30703740585595 -2.9314217793568966Q19.387887676656245 -2.658992932587862 19.57163126986474 -2.4082376199960707L20.504901429489255 -1.1871341113373637Q20.721964724846185 -0.9030736447870731 20.78280202567577 -0.7500385685451328Q20.84363932650536 -0.5970034923031926 20.84363932650536 -0.45026815876364706Q20.84363932650536 -0.2498135432973504 20.696058502513914 -0.1249067716486752Q20.548477678522467 0.0 20.247335503287612 0.0H17.19129120569676Q16.637732642926274 0.0 16.637732642926274 -0.4495039941743016Q16.637732642926274 -0.6665935333818197 16.55820047708228 -0.8511507740803064Q16.478668311238287 -1.035708014778793 16.10546762511134 -1.5213000595942139L4.247470800206065 -17.159631118029356L5.2812098278105255 -17.914804774448275V-2.685860293060541Q5.2812098278105255 -2.088201916962862 5.513981833029538 -1.810899982061237Q5.746753838248551 -1.5335980471596122 6.439881065860391 -1.301204452626407L7.42858338162303 -1.0579391694813967Q7.962179782390594 -0.8655076265707612 7.962179782390594 -0.5002868753671645ZM36.459202871359885 -8.689849974028766Q36.459202871359885 -8.055499889329075 36.084002520293 -7.718318437971174Q35.70880216922611 -7.381136986613273 34.98575010180473 -7.381136986613273H25.427572529688476V-8.272262993864715H32.58111397538334Q33.27674925047904 -8.272262993864715 33.27674925047904 -8.890501011684536Q33.27674925047904 -10.943214111328125 32.4177244948782 -12.078956900630146Q31.558699739277362 -13.214699689932168 30.126594435609874 -13.214699689932168Q28.989904778189956 -13.214699689932168 28.13318704649806 -12.563544346131383Q27.276469314806164 -11.9123890023306 26.79576125750318 -10.715442849732934Q26.3150532002002 -9.51849669713527 26.3150532002002 -7.888292747698724Q26.3150532002002 -4.894695647098124 27.735276179015635 -3.3455769458971916Q29.155499157831073 -1.7964582446962594 31.450948271267116 -1.7964582446962594Q32.9369259371236 -1.7964582446962594 34.02875749463215 -2.485322777945548Q35.12058905214071 -3.174187311194837 35.54808194361627 -4.314270312041044Q35.719862853661176 -4.547389414720237 35.83859439242631 -4.633932384420186Q35.95732593119144 -4.720475354120135 36.097742497399445 -4.720475354120135Q36.28851276297122 -4.720475354120135 36.37438510889187 -4.558882740698754Q36.46025745481253 -4.397290127277374 36.45125782102346 -4.169521466642618Q36.35728239700198 -2.9279254030063746 35.56173394599929 -1.8997791967727242Q34.766185494996606 -0.871632990539074 33.44373630803078 -0.2644680243730545Q32.12128712106496 0.34269694179296495 30.439108674824237 0.34269694179296495Q28.363230177797377 0.34269694179296495 26.781386815197763 -0.5326876802556217Q25.199543452598153 -1.4080723023042083 24.314775081016123 -2.997985478527844Q23.430006709434092 -4.58789865475148 23.430006709434092 -6.7256663954257965Q23.430006709434092 -8.913085423596202 24.293575688805433 -10.621153713874518Q25.15714466817677 -12.329222004152834 26.75112380443141 -13.316931966673582Q28.345102940686047 -14.30464192919433 30.530000606551766 -14.30464192919433Q32.34718047905713 -14.30464192919433 33.678634945247325 -13.587798262685537Q35.01008941143751 -12.870954596176743 35.7346461413987 -11.606594858765602Q36.459202871359885 -10.342235121354461 36.459202871359885 -8.689849974028766ZM49.51254729844629 -12.601586283445357 40.97054260633886 -0.44821930121630427 40.4261134969443 -0.9825368386879563H45.47790716674179Q46.18293637286872 -0.9825368386879563 46.64356580425054 -1.1359992609545588Q47.10419523563236 -1.2894616832211614 47.49179014720023 -1.7251989872753621Q47.879385058768094 -2.1609362913295627 48.350650519318876 -2.9900931921601295L49.03903307944536 -4.24677764955908Q49.18977740507573 -4.503912967666984 49.36303994100541 -4.587953241225332Q49.536302476935084 -4.67199351478368 49.73574411056936 -4.642986657656729Q49.9738851871714 -4.609305931292474 50.06811060123145 -4.4437266540527345Q50.16233601529151 -4.278147376812995 50.10397745367139 -4.003688959144056L49.22764556441456 -0.23990905825048683Q49.13726755376905 0.12258646499365568 48.999856917299326 0.26532440090551973Q48.86244628082961 0.40806233681738374 48.64498879797757 0.40806233681738374Q48.368874191343785 0.40806233681738374 48.07047193977982 0.20403116840869187Q47.77206968821585 0.0 47.178233322836455 0.0H38.5773224003613Q38.12203878231347 0.0 37.94026570754126 -0.12773946337401867Q37.75849263276905 -0.25547892674803735 37.75849263276905 -0.4859484951943159Q37.75849263276905 -0.6663778794184327 37.84603876601905 -0.8761532215029001Q37.93358489926904 -1.0859285635873674 38.15269897587597 -1.3927397843822837L46.65330657452345 -13.474031269289553L47.142676488049325 -13.00676868148148H42.296474735587836Q41.676397928372026 -13.00676868148148 41.25324042208493 -12.857153253089635Q40.83008291579783 -12.707537824697791 40.49079860122875 -12.326972944010048Q40.151514286659655 -11.946408063322306 39.78555227424949 -11.248894128017128L39.25257000323385 -10.204979547522962Q39.11816855382174 -9.956862073503434 38.954585481807584 -9.864824515376238Q38.791002409793435 -9.772786957249044 38.56522349461913 -9.816147147528827Q38.3404409796372 -9.860170586295425 38.232044676784426 -10.039424282088875Q38.123648373931644 -10.218677977882326 38.18668080478906 -10.503793846964836L38.87695475175977 -13.695445349179208Q38.96032267168164 -14.078607884533703 39.10623555617407 -14.226841223202644Q39.252148440666495 -14.375074561871587 39.48760519109666 -14.375074561871587Q39.771393136940894 -14.375074561871587 40.05679332358763 -14.186192472148687Q40.34219351023435 -13.997310382425784 40.91203024182469 -13.997310382425784H49.08792387396097Q49.54420226354152 -13.997310382425784 49.72597533831373 -13.873904974423347Q49.90774841308593 -13.750499566420912 49.90774841308593 -13.510367115698754Q49.90774841308593 -13.337942593730986 49.82020227983594 -13.12800149012357Q49.73265614658594 -12.918060386516153 49.51254729844629 -12.601586283445357ZM60.39580525293946 -1.8049453779682516V-2.0830616281181573L60.21208424147218 -2.157172144129872V-10.764952073469757Q60.21208424147218 -12.068564542606472 59.57185948172584 -12.761708261109888Q58.9316347219795 -13.454851979613304 57.747910662554204 -13.454851979613304Q56.608619384765625 -13.454851979613304 56.04028081342578 -12.975241588521747Q55.47194224208593 -12.495631197430193 55.47194224208593 -11.84361795913428V-10.683515829294919Q55.47194224208593 -9.96676421865821 55.00372192477807 -9.577754261232911Q54.53550160747021 -9.188744303807615 53.719015092439946 -9.188744303807615Q53.01383503239602 -9.188744303807615 52.634277230836446 -9.559796296432614Q52.25471942927688 -9.930848289057613 52.25471942927688 -10.565553388372063Q52.25471942927688 -11.474317731633782 52.96330941628665 -12.33007914489135Q53.67189940329641 -13.18584055814892 55.02489048505201 -13.739904125947504Q56.37788156680762 -14.29396769374609 58.31276692919433 -14.29396769374609Q60.83863179735839 -14.29396769374609 62.0712244175747 -13.206236829534173Q63.30381703779101 -12.118505965322255 63.30381703779101 -10.278457140997052V-2.1797424487397072Q63.30381703779101 -1.68249177608639 63.4924758409895 -1.4548483932763339Q63.681134644187985 -1.2272050104662775 64.00481730312109 -1.2272050104662775Q64.36653310161084 -1.2272050104662775 64.53417022705078 -1.397374738007784Q64.70180735249072 -1.56754446554929 64.81051798481494 -1.749108691290021Q64.880560506396 -1.839803474396467 64.95509536838159 -1.9045005874335765Q65.02963023036718 -1.969197700470686 65.14135671190917 -1.969197700470686Q65.2840961752832 -1.969197700470686 65.3536338346079 -1.8644722045026718Q65.4231714939326 -1.7597467085346579 65.4231714939326 -1.5809919259697198Q65.4231714939326 -1.1668743896484375 65.13678329911082 -0.7237882989272475Q64.85039510428905 -0.2807022082060575 64.28781758900732 0.0285104379616678Q63.72524007372558 0.3377230841293931 62.883165083974596 0.3377230841293931Q61.71371521566063 0.3377230841293931 61.05476023430005 -0.21484965143725276Q60.39580525293946 -0.7674223870038986 60.39580525293946 -1.8049453779682516ZM51.57541289649904 -3.0954800402373075Q51.57541289649904 -4.852967934720218 53.13444192962721 -5.973729297537357Q54.69347096275538 -7.094490660354495 57.499282110482454 -7.094490660354495Q58.52292316842824 -7.094490660354495 59.358673954457046 -6.905501148439944Q60.19442474048584 -6.716511636525392 60.841451413482424 -6.421172383837401L60.61735839083791 -5.6734032080322505Q60.000349725745615 -5.934731637574732 59.347186071518806 -6.103730406593531Q58.694022417292 -6.27272917561233 57.92204518530517 -6.27272917561233Q56.44632944785058 -6.27272917561233 55.619436444696035 -5.556779064740985Q54.79254344154149 -4.84082895386964 54.79254344154149 -3.5995653326064345Q54.79254344154149 -2.3852993888407945 55.4763746182993 -1.733522706516087Q56.16020579505712 -1.0817460241913794 57.23051127791405 -1.0817460241913794Q58.20562897045165 -1.0817460241913794 59.11522155666724 -1.5258142165839672Q60.024814142882825 -1.9698824089765548 60.677562551535665 -2.7926481079682706L60.972999867796894 -2.1482671973481775Q60.10621347282082 -0.9587900719419121 58.731395664028824 -0.31003610813990234Q57.35657785523683 0.33871785566210744 55.81576435938477 0.33871785566210744Q53.939290458709 0.33871785566210744 52.75735167760402 -0.5946563213132321Q51.57541289649904 -1.5280304982885717 51.57541289649904 -3.0954800402373075ZM71.50938771586866 -13.468247569017112V-1.948148722462356Q71.50938771586866 -1.564996456503868 71.65608500014991 -1.3707772490568457Q71.80278228443116 -1.1765580416098236 72.08684712242335 -1.0978623622655868L72.77866637740284 -0.9438517415151Q73.2175326493755 -0.8010956965014339 73.2175326493755 -0.47893840447068214Q73.2175326493755 0.0 72.57651569265872 0.0H67.21779724247753Q66.90327992398292 0.0 66.75169829752296 -0.12456604225561023Q66.600116671063 -0.24913208451122046 66.600116671063 -0.45758993357419964Q66.600116671063 -0.6313557031005621 66.71766946647315 -0.7504188661091029Q66.83522226188332 -0.8694820291176438 67.07700784664601 -0.9405209508910775L67.81616291832178 -1.0991888592392205Q68.10155425328762 -1.180552283115685 68.24692504059524 -1.367777065951377Q68.39229582790286 -1.5550018487870694 68.39229582790286 -1.9355013231933116V-11.419033994972706Q68.39229582790286 -11.73485797148198 68.28708276445046 -11.877082754317671Q68.18186970099806 -12.019307537153363 67.93610808502882 -12.045993125773967L66.90157582115381 -12.08335294984281Q66.66577564962208 -12.120712773911654 66.56356195494533 -12.221262600738555Q66.46134826026857 -12.321812427565455 66.46134826026857 -12.479568472579121Q66.46134826026857 -12.6606625315547 66.57823943585157 -12.778391007967294Q66.69513061143458 -12.896119484379888 67.00629872661084 -13.0045166015625L69.59901211749762 -13.895787960067391Q70.03424059834332 -14.054538776613771 70.30805799460039 -14.122916616015136Q70.58187539085746 -14.1912944554165 70.80299722082913 -14.1912944554165Q71.15552103023975 -14.1912944554165 71.3324543730542 -13.99736317751929Q71.50938771586866 -13.803431899622082 71.50938771586866 -13.468247569017112ZM71.09860565375537 -10.325968317054212 70.55698760669678 -10.871598613522947 71.19640542648732 -11.4329872597754Q72.96860910460353 -13.027137453071772 74.28072880228981 -13.664894919600336Q75.5928484999761 -14.302652386128901 76.80363392092288 -14.302652386128901Q78.67086516827345 -14.302652386128901 79.79946482224389 -13.1336686668545Q80.92806447621435 -11.964684947580098 80.92806447621435 -9.92697182893753V-2.0021457156166433Q80.92806447621435 -1.5886787106469273 81.09358983568848 -1.3807945945858955Q81.2591151951626 -1.1729104785248636 81.56416341293603 -1.0858784138783812L82.19075653329492 -0.9351838331669569Q82.61295003466307 -0.791101291179657 82.61295003466307 -0.47893840447068214Q82.61295003466307 0.0 81.98528980851174 0.0H76.69851552665233Q76.05816202081739 0.0 76.05816202081739 -0.47893840447068214Q76.05816202081739 -0.8010956965014339 76.49101297359913 -0.9438517415151L77.21087178189308 -1.096535865291953Q77.53088886983693 -1.1775528131425381 77.67292047450319 -1.394082099739462Q77.81495207916944 -1.6106113863363862 77.81495207916944 -2.0167371823266147V-9.464167668297886Q77.81495207916944 -10.961823819950222 77.08696003429591 -11.706318346392361Q76.35896798942238 -12.450812872834502 75.1422656155005 -12.450812872834502Q74.38627603322267 -12.450812872834502 73.54404148634524 -12.075276222489773Q72.70180693946779 -11.699739572145045 71.73136311616749 -10.870022370480001ZM80.50368733808398 -10.325968317054212 79.9620692910254 -10.871598613522947 80.59750761989504 -11.436966750696302Q82.30550822172313 -12.977478334419429 83.54367696337401 -13.640065360274164Q84.78184570502489 -14.302652386128901 85.94491607476026 -14.302652386128901Q87.7215010600537 -14.302652386128901 88.70158066017552 -13.126997676864265Q89.68166026029735 -11.95134296759963 89.90863301932811 -9.925645331963896L90.84680501449853 -2.004798709563911Q90.89548411220312 -1.589341959133744 91.03799641979859 -1.377628649957478Q91.18050872739404 -1.1659153407812117 91.48555694516747 -1.0845519169047475L92.12149780400097 -0.9391944539174437Q92.36262014027685 -0.8691503036767244 92.47917806295678 -0.7507503891550005Q92.59573598563671 -0.6323504746332764 92.59573598563671 -0.45758993357419964Q92.59573598563671 -0.24846883602440356 92.44848841454834 -0.12423441801220178Q92.30124084345996 0.0 91.97739236813038 0.0H86.57863200355321Q85.93827849771827 0.0 85.93827849771827 -0.47893840447068214Q85.93827849771827 -0.7991061534360051 86.3711294505 -0.9438517415151L87.09098825879394 -1.096535865291953Q87.4110053467378 -1.1765580416098236 87.57737650025635 -1.3942479624599218Q87.74374765377492 -1.61193788331002 87.69506855607032 -2.019390176273882L86.79818999547511 -9.464167668297886Q86.61554106842726 -10.953818957693874 86.02203200597316 -11.702315915264188Q85.42852294351906 -12.450812872834502 84.29813923604786 -12.450812872834502Q83.60578266866504 -12.450812872834502 82.83269047569483 -12.056771278325467Q82.05959828272462 -11.662729683816433 81.1324653095752 -10.874001861400902Z"/></g>
<g transform="translate(59.402,27.921)"><path fill="#BA903B" d="M103.01800578285008 -8.32816092442721H111.86064403697848L111.95067231427878 -7.1528612221777434H102.87930003650486ZM104.35066914517432 -0.5002868753671645Q104.35066914517432 -0.27581767313182354 104.18657373441383 -0.13790883656591177Q104.02247832365333 0.0 103.6622664244473 0.0H99.04538392759859Q98.69150391764938 0.0 98.52024013113231 -0.13390640543773769Q98.34897634461522 -0.26781281087547537 98.34897634461522 -0.4922820131108165Q98.34897634461522 -0.6630335620790719 98.45719040550291 -0.7800996043346822Q98.5654044663906 -0.8971656465902924 98.85724030237644 -1.0179099722206593L99.44649323523045 -1.2139043389633297Q99.87551209129393 -1.391603314206004 100.10941452121361 -1.7190522435866296Q100.3433169511333 -2.046501172967255 100.61297250855714 -2.887761241234839L105.8723103672266 -18.786727690212427Q106.04800321776419 -19.31946216545999 105.94354022657498 -19.559445735141633Q105.83907723538577 -19.799429304823278 105.31305133402347 -19.936771221868693Q104.92488483265042 -20.044127687104044 104.76815896304325 -20.179367964807895Q104.61143309343606 -20.31460824251175 104.61143309343606 -20.51572284914553Q104.61143309343606 -20.74785043761134 104.78703093532474 -20.87392521880567Q104.9626287772134 -21.0 105.31649383418262 -21.0H111.38416697289794Q111.7450421205908 -21.0 111.91213771445676 -20.87392521880567Q112.07923330832273 -20.74785043761134 112.07923330832273 -20.52372771140188Q112.07923330832273 -20.311938869319857 111.93033824862911 -20.174369846619665Q111.78144318893551 -20.036800823919474 111.4116256884858 -19.948771954290567Q110.9816339237988 -19.856732463911175 110.9006344731152 -19.677525665257125Q110.81963502243161 -19.498318866603075 110.95498495817183 -19.0805998500064L116.57857868347317 -2.37898950073868Q116.76829273693264 -1.780494007207453 117.0468096343428 -1.4925835419818758Q117.32532653175294 -1.2046730767562985 117.84739938843995 -1.0866128749027848Q118.22626912012696 -0.9725452858954667 118.35366714097559 -0.8431395116820931Q118.48106516182422 -0.7137337374687195 118.48106516182422 -0.5002868753671645Q118.48106516182422 -0.27581767313182354 118.30596470570191 -0.13790883656591177Q118.1308642495796 0.0 117.77799396414309 0.0H111.84904430173337Q111.4998365323618 0.0 111.32690724933519 -0.13790883656591177Q111.15397796630859 -0.27581767313182354 111.15397796630859 -0.5002868753671645Q111.15397796630859 -0.6950546397641301 111.28420283105224 -0.8194622957892715Q111.4144276957959 -0.943869951814413 111.696239422895 -1.0179099722206593L112.72568887945265 -1.1726172071322798Q113.10972045265137 -1.2606311237812042 113.12666864281519 -1.5039959932118654Q113.14361683297902 -1.7473608626425265 112.96890583444386 -2.2768328070268034L107.20843333728611 -19.63447794701904L107.6338555990532 -19.872297860719264L102.08647941157221 -3.030551673397422Q101.91080334506928 -2.4818746097758413 101.921565416269 -2.130726743414998Q101.93232748746871 -1.7795788770541547 102.16409007651731 -1.5615923773683607Q102.3958526655659 -1.3436058776825666 102.85950276777147 -1.1859256190434098L103.81639780025928 -1.007235736772418Q104.09086608253419 -0.9258541025966406 104.22076761385426 -0.814125178065151Q104.35066914517432 -0.7023962535336613 104.35066914517432 -0.5002868753671645ZM125.61550801679492 -2.007504908144474Q125.61550801679492 -1.7027397069441421 125.80337875334546 -1.5140137555689686Q125.99124948989599 -1.3252878041937948 126.3383023045957 -1.2432595031708478L127.36804616376757 -1.057937540821731Q127.89429789584129 -0.9171859918534755 127.89429789584129 -0.5008848498004381Q127.89429789584129 -0.27507020509023156 127.73482545428064 -0.13753510254511578Q127.57535301271999 0.0 127.22125660412013 0.0H120.55138072371483Q120.20528917737131 0.0 120.04181430468248 -0.13753510254511578Q119.87833943199365 -0.27507020509023156 119.87833943199365 -0.5008848498004381Q119.87833943199365 -0.9171859918534755 120.40459116406738 -1.057937540821731L121.43433502323926 -1.2432595031708478Q121.78738820414989 -1.3252878041937948 121.97225875759497 -1.5140137555689686Q122.15712931104004 -1.7027397069441421 122.15712931104004 -2.007504908144474V-18.992495091855524Q122.15712931104004 -19.29726029305586 121.97225875759497 -19.48648363019739Q121.78738820414989 -19.675706967338918 121.43433502323926 -19.756740496829153L120.40459116406738 -19.942062459178267Q119.87833943199365 -20.08232108327585 119.87833943199365 -20.499713124632834Q119.87833943199365 -20.73851907838136 120.04181430468248 -20.86925953919068Q120.20528917737131 -21.0 120.55138072371483 -21.0H127.22125660412013Q127.57535301271999 -21.0 127.73482545428064 -20.86925953919068Q127.89429789584129 -20.73851907838136 127.89429789584129 -20.499713124632834Q127.89429789584129 -20.08232108327585 127.36804616376757 -19.942062459178267L126.3383023045957 -19.756740496829153Q125.99124948989599 -19.675706967338918 125.80337875334546 -19.48648363019739Q125.61550801679492 -19.29726029305586 125.61550801679492 -18.992495091855524Z"/></g>
</svg>